<?xml version="1.0" encoding="utf-8"?>
<!-- Generator: Adobe Illustrator 17.0.0, SVG Export Plug-In . SVG Version: 6.00 Build 0)  -->
<!DOCTYPE svg PUBLIC "-//W3C//DTD SVG 1.1//EN" "http://www.w3.org/Graphics/SVG/1.1/DTD/svg11.dtd">
<svg version="1.1" id="Layer_1" xmlns="http://www.w3.org/2000/svg" xmlns:xlink="http://www.w3.org/1999/xlink" x="0px" y="0px"
	 width="100px" height="100px" viewBox="0 0 100 100" enable-background="new 0 0 100 100" xml:space="preserve">
<g>
	<g>
		<defs>
			<path id="SVGID_29_" d="M721.235,1201.012c-15.626-14.699-18.063-26.212-31.859-26.212c-13.798,0-562.891,0-576.952,0
				c-14.061,0-21.62,15.388-32.116,26.67l-12.293,14.036v296.966h666.142v-296.966L721.235,1201.012z"/>
		</defs>
		<use xlink:href="#SVGID_29_"  overflow="visible" fill="#FFFFFF"/>
		<clipPath id="SVGID_1_">
			<use xlink:href="#SVGID_29_"  overflow="visible"/>
		</clipPath>
		<g clip-path="url(#SVGID_1_)">
			<linearGradient id="SVGID_2_" gradientUnits="userSpaceOnUse" x1="56.9155" y1="1011.3405" x2="3817.2949" y2="1011.3405">
				<stop  offset="0" style="stop-color:#002661"/>
				<stop  offset="0.0508" style="stop-color:#003E77"/>
				<stop  offset="0.1095" style="stop-color:#00548E"/>
				<stop  offset="0.1745" style="stop-color:#006AA5"/>
				<stop  offset="0.2455" style="stop-color:#007DBA"/>
				<stop  offset="0.3244" style="stop-color:#008DCB"/>
				<stop  offset="0.4145" style="stop-color:#009AD9"/>
				<stop  offset="0.5228" style="stop-color:#00A3E4"/>
				<stop  offset="0.6674" style="stop-color:#00ABEC"/>
				<stop  offset="1" style="stop-color:#00AEEF"/>
			</linearGradient>
			<path fill="url(#SVGID_2_)" d="M1454.895-26C684.038-26,56.916,601.141,56.916,1371.983c0,55.954,4.423,114.14,13.345,180.876
				c0.779,5.853,1.375,11.342,2.228,17.334c24.587,171.983,87.497,348.029,161.616,478.488
				c17.65-1024.01,574.918-1421.331,1113.739-1468.164l4.706-0.511l0.029-0.004c39.311-5.029,71.832-7.386,102.316-7.386h109.445
				V-26H1454.895z"/>
		</g>
		<use xlink:href="#SVGID_29_"  overflow="visible" fill="none" stroke="#939598"/>
	</g>
</g>
<g>
	<path fill="none" d="M50.96,52.664c-0.318-0.307-0.637-0.607-0.956-0.898c-0.272,0.248-0.546,0.502-0.822,0.766l-0.036,0.035
		c-0.241,0.231-0.482,0.465-0.723,0.706c-3.875,3.875-6.403,7.67-7.402,11.081l17.96,0c-0.996-3.409-3.52-7.199-7.387-11.067
		C51.382,53.076,51.171,52.869,50.96,52.664z"/>
	<path fill="none" d="M40.527,82.849c0,0.358,0.027,0.74,0.086,1.202l0,0c0.601,4.715,4.636,8.271,9.387,8.271
		c5.223,0,9.473-4.25,9.473-9.473V71.448H40.527V82.849z"/>
	<path fill="none" d="M50.021,31.443c5.223,0,9.473-4.249,9.473-9.472l0.001-4.348h-0.001v-0.471c0-5.225-4.25-9.474-9.473-9.474
		c-5.224,0-9.473,4.25-9.473,9.473v4.819c0,0.361,0.028,0.747,0.088,1.212l0,0C41.241,27.892,45.276,31.443,50.021,31.443z"/>
	<path fill="#002661" d="M22.032,64.354c-5.224,0-9.473-4.25-9.473-9.473c0-4.745,3.552-8.78,8.261-9.385v0l0,0l-0.056,0.006
		c-6.385,0.555-13.22,5.37-13.198,17.399c2.99,5.151,8.343,8.548,14.467,8.548h11.401v-7.094H22.032z"/>
	<linearGradient id="SVGID_3_" gradientUnits="userSpaceOnUse" x1="5.4649" y1="50.607" x2="50.0276" y2="50.607">
		<stop  offset="0" style="stop-color:#002661"/>
		<stop  offset="0.0508" style="stop-color:#003E77"/>
		<stop  offset="0.1095" style="stop-color:#00548E"/>
		<stop  offset="0.1745" style="stop-color:#006AA5"/>
		<stop  offset="0.2455" style="stop-color:#007DBA"/>
		<stop  offset="0.3244" style="stop-color:#008DCB"/>
		<stop  offset="0.4145" style="stop-color:#009AD9"/>
		<stop  offset="0.5228" style="stop-color:#00A3E4"/>
		<stop  offset="0.6674" style="stop-color:#00ABEC"/>
		<stop  offset="1" style="stop-color:#00AEEF"/>
	</linearGradient>
	<path fill="url(#SVGID_3_)" d="M48.859,41.953c-5.831-3.64-10.069-3.64-11.879-3.64H22.032c-9.135,0-16.567,7.432-16.567,16.567
		c0,0.663,0.052,1.353,0.158,2.144c0.009,0.069,0.016,0.134,0.026,0.205c0.291,2.038,1.103,4.397,1.915,5.67
		c0.086-12.177,6.813-16.844,13.198-17.399l0.056-0.006l0,0c0.466-0.06,0.851-0.088,1.213-0.088H36.98c1.308,0,3.497,0,6.879,1.833
		c0.123,0.066,0.247,0.143,0.371,0.213c0.361-0.346,0.728-0.69,1.102-1.029c1.252-1.096,2.765-2.323,3.872-3.139l0.777-0.573
		l0.028,0.019c0.006-0.004,0.012-0.008,0.018-0.012C49.639,42.455,49.249,42.197,48.859,41.953z"/>
	<linearGradient id="SVGID_4_" gradientUnits="userSpaceOnUse" x1="94.4329" y1="39.5733" x2="35.2259" y2="83.9785">
		<stop  offset="0.0153" style="stop-color:#002661"/>
		<stop  offset="0.0619" style="stop-color:#004079"/>
		<stop  offset="0.1221" style="stop-color:#006097"/>
		<stop  offset="0.1819" style="stop-color:#007DB4"/>
		<stop  offset="0.2402" style="stop-color:#0096CC"/>
		<stop  offset="0.2966" style="stop-color:#00A9DF"/>
		<stop  offset="0.3501" style="stop-color:#00B6EB"/>
		<stop  offset="0.398" style="stop-color:#00BDF2"/>
	</linearGradient>
	<path fill="url(#SVGID_4_)" d="M77.968,38.314H62.723c-6.916,0-13.039,4.399-13.039,4.399l-0.777,0.573
		c-1.107,0.816-2.62,2.042-3.872,3.139c-0.374,0.339-0.741,0.683-1.102,1.029c-0.279,0.267-0.556,0.536-0.824,0.804
		c-3.338,3.338-5.88,6.706-7.555,10.009c-1.045,2.062-2.122,4.109-2.122,6.781v0.899v5.502v11.401
		c0,9.135,7.432,16.567,16.567,16.567c0.663,0,1.352-0.052,2.143-0.158c0.068-0.009,0.132-0.016,0.201-0.026l0.003,0
		c2.038-0.291,4.531-1.217,5.671-1.915c-11.617,0.108-16.849-6.818-17.4-13.21l-0.006-0.056v0c-0.059-0.462-0.086-0.844-0.086-1.202
		V71.448v-1.182l0.146-4.403c0.08-0.493,0.198-0.997,0.348-1.508c0.999-3.411,3.528-7.206,7.402-11.081
		c0.24-0.241,0.482-0.475,0.723-0.706l0.036-0.035c0.275-0.264,0.549-0.518,0.822-0.766c0.072-0.065,0.144-0.132,0.215-0.196
		l0.003,0.001l0.696-0.613c0.841-0.741,1.831-1.562,3.374-2.553c0.419-0.274,0.847-0.536,1.292-0.79l0.034-0.019
		c0.065-0.037,0.127-0.068,0.191-0.104c3.744-2.079,6.257-2.083,7.212-2.083h14.948c5.224,0,9.473,4.25,9.473,9.473
		c0,5.224-4.25,9.473-9.473,9.473h-0.472v0.001h0.048c0.09,0.003,0.179,0.009,0.267,0.015c0.073,0.005,0.146,0.011,0.22,0.011
		c13.874,0,14.402-17.524,14.402-17.524C89.576,41.736,84.095,38.314,77.968,38.314z"/>
	<path fill="#00AEEF" d="M66.567,64.354c0-3.84-4.485-10.609-9.957-16.082c-0.267-0.267-0.535-0.524-0.802-0.781
		c-0.064,0.036-0.126,0.067-0.191,0.104l-0.034,0.019c-0.444,0.254-0.873,0.517-1.292,0.79c-1.543,0.991-2.532,1.813-3.374,2.553
		l-0.696,0.613l-0.003-0.001c-0.071,0.064-0.143,0.131-0.215,0.196c0.319,0.292,0.638,0.591,0.956,0.898
		c0.211,0.204,0.423,0.412,0.634,0.623c3.868,3.868,6.391,7.658,7.387,11.067c0.15,0.512,0.267,1.015,0.347,1.509l0.146,4.232v1.353
		v11.401c0,5.224-4.25,9.473-9.473,9.473c-4.751,0-8.787-3.556-9.387-8.271v0l0.006,0.056c0.551,6.391,5.514,13.345,17.4,13.21
		c5.122-2.858,8.548-8.343,8.548-14.467V71.448V64.354L66.567,64.354z"/>
	<path d="M47.896,0.737l-0.192,0.027c0.07-0.01,0.134-0.017,0.202-0.026L47.896,0.737z"/>
	<path d="M52.175,38.38l0.195-0.028c-0.071,0.01-0.136,0.017-0.205,0.026L52.175,38.38z"/>
	<linearGradient id="SVGID_5_" gradientUnits="userSpaceOnUse" x1="46.4787" y1="40.0491" x2="46.4787" y2="-9.5243">
		<stop  offset="0.051" style="stop-color:#007F42"/>
		<stop  offset="0.1747" style="stop-color:#008841"/>
		<stop  offset="0.3845" style="stop-color:#45983F"/>
		<stop  offset="0.5739" style="stop-color:#66A63C"/>
		<stop  offset="0.7345" style="stop-color:#78AF39"/>
		<stop  offset="0.8469" style="stop-color:#7EB338"/>
	</linearGradient>
	<path fill="url(#SVGID_5_)" d="M59.496,16.3c-0.367-6.51-5.144-13.614-17.5-13.614c-1.347,0.689-2.68,1.747-3.805,2.894
		c-3.055,3.114-4.737,7.224-4.737,11.571v4.819c0,4.352,1.683,8.466,4.738,11.585c3.147,3.212,7.348,4.982,11.829,4.982
		c0.663,0,1.352-0.052,2.144-0.158c0.069-0.009,0.134-0.016,0.205-0.026c1.989-0.284,4.197-0.996,5.67-1.915
		c-15.977-0.239-17.246-11.44-17.398-13.199l-0.006-0.056v0c-0.06-0.465-0.088-0.851-0.088-1.212v-4.819
		c0-5.224,4.249-9.473,9.473-9.473c5.223,0,9.473,4.25,9.473,9.474C59.494,17.152,59.513,16.606,59.496,16.3z"/>
	<linearGradient id="SVGID_6_" gradientUnits="userSpaceOnUse" x1="53.6118" y1="76.5371" x2="53.6118" y2="-21.7401">
		<stop  offset="0" style="stop-color:#00431E"/>
		<stop  offset="0.123" style="stop-color:#00441F"/>
		<stop  offset="0.2195" style="stop-color:#004923"/>
		<stop  offset="0.3071" style="stop-color:#005128"/>
		<stop  offset="0.3887" style="stop-color:#005C2F"/>
		<stop  offset="0.4666" style="stop-color:#076C39"/>
		<stop  offset="0.4694" style="stop-color:#096C39"/>
		<stop  offset="0.7449" style="stop-color:#9CCB3B"/>
	</linearGradient>
	<path fill="url(#SVGID_6_)" d="M64.124,8.468c-3.05-4.937-8.322-7.884-14.103-7.884c-0.653,0-1.333,0.051-2.115,0.154
		c-0.068,0.009-0.132,0.016-0.202,0.026c-2.003,0.282-4.269,1.049-5.708,1.922C54.413,2.789,59.129,9.79,59.496,16.3
		c0.017,0.306-0.002,5.67-0.002,5.67c0,5.223-4.25,9.472-9.473,9.472c-4.745,0-8.78-3.552-9.385-8.261v0l0.006,0.056
		c0.153,1.759,1.402,12.959,17.398,13.199c1.203-0.583,2.687-1.75,3.814-2.9c3.053-3.113,4.734-7.221,4.734-11.567v-4.819
		C66.588,14.08,65.736,11.077,64.124,8.468z"/>
	<linearGradient id="SVGID_7_" gradientUnits="userSpaceOnUse" x1="40.5269" y1="59.1521" x2="94.5351" y2="59.1521">
		<stop  offset="0" style="stop-color:#002661"/>
		<stop  offset="0.2728" style="stop-color:#002763"/>
		<stop  offset="0.4436" style="stop-color:#002D69"/>
		<stop  offset="0.5865" style="stop-color:#003773"/>
		<stop  offset="0.7138" style="stop-color:#004582"/>
		<stop  offset="0.8309" style="stop-color:#005697"/>
		<stop  offset="0.939" style="stop-color:#006CB0"/>
		<stop  offset="1" style="stop-color:#007DC5"/>
	</linearGradient>
	<path fill="url(#SVGID_7_)" d="M94.381,52.766c-0.009-0.068-0.016-0.132-0.026-0.202l-0.001-0.003
		c-0.289-2.051-0.956-3.975-1.922-5.705c0,0-0.7,17.524-14.402,17.524c-0.074,0-0.147-0.006-0.22-0.011
		c-0.089-0.006-0.177-0.012-0.267-0.015h-0.048l-18.516,0v0l-17.96,0c-0.15,0.512-0.267,1.015-0.348,1.508l-0.146,4.403v1.182
		h16.226h2.72h18.495c9.135,0,16.567-7.432,16.567-16.567C94.535,54.229,94.484,53.549,94.381,52.766z"/>
</g>
</svg>
